<svg clip-rule="evenodd" stroke-linecap="round" stroke-linejoin="round" stroke-miterlimit="10" viewBox="0 0 96.39 144.585" xmlns="http://www.w3.org/2000/svg" xmlns:xlink="http://www.w3.org/1999/xlink"><defs><path id="a" d="m0-.460544h96.5346v145.229544h-96.5346z"/><clipPath id="b"><path clip-rule="evenodd" d="m0 0h96.39v144.585h-96.39z"/></clipPath><mask id="c" height="145.23" maskUnits="userSpaceOnUse" width="96.5346" x="0" y="-.460544"><path clip-rule="evenodd" d="m0-.460544h96.5346v145.23h-96.5346z"/><use clip-rule="evenodd" fill="#fff" fill-rule="evenodd" xlink:href="#a"/></mask></defs><g clip-path="url(#b)"><g><use fill="#5a94bc" xlink:href="#a"/><use style="fill:none;stroke:#fff;stroke-linecap:butt;stroke-linejoin:miter;stroke-width:6;mask:url(#c)" xlink:href="#a"/></g><path d="m53.4082 76.5796c0 6.4 2.176 9.6 6.528 9.6.6827 0 1.7067-.1066 3.072-.32 1.3654-.2133 2.3894-.32 3.072-.32 1.1094 0 2.0694.4054 2.88 1.216.8107.8107 1.216 1.7707 1.216 2.88 0 2.9867-1.92 4.48-5.76 4.48-.1706 0-.4266 0-.768 0-.4266-.0853-.7253-.128-.896-.128l-6.272-.896c-2.3893-.3413-5.0773-.512-8.064-.512-3.2426 0-6.1013.1707-8.576.512l-6.4.896c-.256 0-.5546.0427-.896.128-.4266 0-.7253 0-.896 0-3.7546 0-5.632-1.4933-5.632-4.48 0-2.7306 1.3654-4.096 4.096-4.096.6827 0 1.7067.1067 3.072.32 1.3654.2134 2.3894.32 3.072.32 4.2667 0 6.4-3.2 6.4-9.6v-8.96l.128-11.264v-10.88l-.128-20.864c0-6.0586-3.1146-9.088-9.344-9.088h-3.968c-6.144 0-9.216 2.9867-9.216 8.96 0 2.1334.0427 3.584.128 4.352l.512 4.736c.0854.768.128 1.8347.128 3.2 0 5.376-1.664 8.064-4.992 8.064-3.1573 0-4.736-1.9626-4.736-5.888 0-1.1093.0854-3.0293.256-5.76.256-4.096.384-6.6986.384-7.808 0-2.1333-.0853-4.352-.256-6.656-.3413-4.5226-.512-6.4426-.512-5.76 0-3.58396 1.6214-5.37596 4.864-5.37596 1.1947 0 3.968.128 8.32.384.4267 0 3.9254.08533 10.496.256l14.592.256c1.7067 0 6.272-.08533 13.696-.256 1.6214 0 4.3947-.128 8.32-.384 3.4987-.256 6.2294-.384 8.192-.384 4.2667 0 6.4 1.74933 6.4 5.24796v.256c0 .8534-.1066 2.432-.32 4.736-.2133 2.304-.448 4.7787-.704 7.424v1.408c0 1.28.128 3.2854.384 6.016.3414 3.584.512 5.8027.512 6.656 0 3.4987-1.664 5.248-4.992 5.248-3.2426 0-4.864-2.1333-4.864-6.4 0-1.536.128-3.8186.384-6.848.256-3.0293.384-5.312.384-6.848 0-5.888-3.3706-8.832-10.112-8.832h-3.584c-3.1573 0-5.4186.6614-6.784 1.984-1.3653 1.3227-2.1333 3.52-2.304 6.592l-.384 8.96z" fill="#00345c"/></g></svg>