<svg clip-rule="evenodd" stroke-linecap="round" stroke-linejoin="round" stroke-miterlimit="10" viewBox="0 0 841.995 595.35" xmlns="http://www.w3.org/2000/svg" xmlns:xlink="http://www.w3.org/1999/xlink"><defs><path id="a" d="m300.692 238.384h96.535v145.229h-96.535z"/><mask id="b" height="145.23" maskUnits="userSpaceOnUse" width="96.5346" x="300.692" y="238.384"><path clip-rule="evenodd" d="m300.692 238.384h96.5346v145.23h-96.5346z"/><use clip-rule="evenodd" fill="#fff" fill-rule="evenodd" xlink:href="#a"/></mask></defs><g><use fill="#5a94bc" xlink:href="#a"/><use style="fill:none;stroke:#fff;stroke-linecap:butt;stroke-linejoin:miter;stroke-width:6;mask:url(#b)" xlink:href="#a"/></g><path d="m354.101 315.424c0 6.4 2.176 9.6 6.528 9.6.682 0 1.706-.107 3.072-.32 1.365-.213 2.389-.32 3.072-.32 1.109 0 2.069.405 2.88 1.216.81.811 1.216 1.771 1.216 2.88 0 2.987-1.92 4.48-5.76 4.48-.171 0-.427 0-.768 0-.427-.085-.726-.128-.896-.128l-6.272-.896c-2.39-.341-5.078-.512-8.064-.512-3.243 0-6.102.171-8.576.512l-6.4.896c-.256 0-.555.043-.896.128-.427 0-.726 0-.896 0-3.755 0-5.632-1.493-5.632-4.48 0-2.731 1.365-4.096 4.096-4.096.682 0 1.706.107 3.072.32 1.365.213 2.389.32 3.072.32 4.266 0 6.4-3.2 6.4-9.6v-8.96l.128-11.264v-10.88l-.128-20.864c0-6.059-3.115-9.088-9.344-9.088h-3.968c-6.144 0-9.216 2.987-9.216 8.96 0 2.133.042 3.584.128 4.352l.512 4.736c.085.768.128 1.835.128 3.2 0 5.376-1.664 8.064-4.992 8.064-3.158 0-4.736-1.963-4.736-5.888 0-1.109.085-3.029.256-5.76.256-4.096.384-6.699.384-7.808 0-2.133-.086-4.352-.256-6.656-.342-4.523-.512-6.443-.512-5.76 0-3.584 1.621-5.376 4.864-5.376 1.194 0 3.968.128 8.32.384.426 0 3.925.085 10.496.256l14.592.256c1.706 0 6.272-.085 13.696-.256 1.621 0 4.394-.128 8.32-.384 3.498-.256 6.229-.384 8.192-.384 4.266 0 6.4 1.749 6.4 5.248v.256c0 .853-.107 2.432-.32 4.736-.214 2.304-.448 4.779-.704 7.424v1.408c0 1.28.128 3.285.384 6.016.341 3.584.512 5.803.512 6.656 0 3.499-1.664 5.248-4.992 5.248-3.243 0-4.864-2.133-4.864-6.4 0-1.536.128-3.819.384-6.848s.384-5.312.384-6.848c0-5.888-3.371-8.832-10.112-8.832h-3.584c-3.158 0-5.419.661-6.784 1.984-1.366 1.323-2.134 3.52-2.304 6.592l-.384 8.96z" fill="#00345c"/></svg>